HIERARCHY
ROOT Hips
{
	OFFSET -0.001795 -0.223333 0.028219
	CHANNELS 6 Xposition Yposition Zposition Zrotation Yrotation Xrotation 
	JOINT LeftUpLeg
	{
		OFFSET 0.069520 -0.091406 -0.006815
		CHANNELS 3 Zrotation Yrotation Xrotation
		JOINT LeftLeg
		{
			OFFSET 0.034277 -0.375199 -0.004496
			CHANNELS 3 Zrotation Yrotation Xrotation
			JOINT LeftFoot
			{
				OFFSET -0.013596 -0.397961 -0.043693
				CHANNELS 3 Zrotation Yrotation Xrotation
				JOINT LeftToe
				{
					OFFSET 0.026358 -0.055791 0.119288
					CHANNELS 3 Zrotation Yrotation Xrotation
					End Site
					{
						OFFSET 0.000000 0.000000 0.000000
					}
				}
			}
		}
	}
	JOINT RightUpLeg
	{
		OFFSET -0.067670 -0.090522 -0.004320
		CHANNELS 3 Zrotation Yrotation Xrotation
		JOINT RightLeg
		{
			OFFSET -0.038290 -0.382569 -0.008850
			CHANNELS 3 Zrotation Yrotation Xrotation
			JOINT RightFoot
			{
				OFFSET 0.015774 -0.398415 -0.042312
				CHANNELS 3 Zrotation Yrotation Xrotation
				JOINT RightToe
				{
					OFFSET -0.025372 -0.048144 0.123348
					CHANNELS 3 Zrotation Yrotation Xrotation
					End Site
					{
						OFFSET 0.000000 0.000000 0.000000
					}
				}
			}
		}
	}
	JOINT Spine
	{
		OFFSET -0.002533 0.108963 -0.026696
		CHANNELS 3 Zrotation Yrotation Xrotation
		JOINT Spine1
		{
			OFFSET 0.005487 0.135180 0.001092
			CHANNELS 3 Zrotation Yrotation Xrotation
			JOINT Spine2
			{
				OFFSET 0.001457 0.052922 0.025425
				CHANNELS 3 Zrotation Yrotation Xrotation
				JOINT Neck
				{
					OFFSET -0.002778 0.213870 -0.042857
					CHANNELS 3 Zrotation Yrotation Xrotation
					JOINT Head
					{
						OFFSET 0.005152 0.064970 0.051349
						CHANNELS 3 Zrotation Yrotation Xrotation
						End Site
						{
							OFFSET 0.000000 0.000000 0.000000
						}
					}
				}
				JOINT LeftShoulder
				{
					OFFSET 0.078845 0.121749 -0.034090
					CHANNELS 3 Zrotation Yrotation Xrotation
					JOINT LeftArm
					{
						OFFSET 0.090977 0.030469 -0.008868
						CHANNELS 3 Zrotation Yrotation Xrotation
						JOINT LeftForeArm
						{
							OFFSET 0.259612 -0.012772 -0.027456
							CHANNELS 3 Zrotation Yrotation Xrotation
							JOINT LeftHand
							{
								OFFSET 0.249234 0.008986 -0.001171
								CHANNELS 3 Zrotation Yrotation Xrotation
								End Site
								{
									OFFSET 0.000000 0.000000 0.000000
								}
							}
						}
					}
				}
				JOINT RightShoulder
				{
					OFFSET -0.081759 0.118833 -0.038615
					CHANNELS 3 Zrotation Yrotation Xrotation
					JOINT RightArm
					{
						OFFSET -0.096012 0.032551 -0.009143
						CHANNELS 3 Zrotation Yrotation Xrotation
						JOINT RightForeArm
						{
							OFFSET -0.253742 -0.013329 -0.021401
							CHANNELS 3 Zrotation Yrotation Xrotation
							JOINT RightHand
							{
								OFFSET -0.255298 0.007772 -0.005559
								CHANNELS 3 Zrotation Yrotation Xrotation
								End Site
								{
									OFFSET 0.000000 0.000000 0.000000
								}
							}
						}
					}
				}
			}
		}
	}
}
MOTION
Frames: 6
Frame Time: 0.050000
0.000000 1.009685 0.000000 1.497352 -3.758190 -1.729247 1.125802 -0.618130 -7.612359 -1.427729 0.585061 -15.784412 31.333389 24.614710 110.926928 0.000000 0.000000 0.000000 -3.214676 0.532034 -6.236446 0.721340 -0.445896 -13.307086 -38.504264 -23.972570 115.161714 0.000000 0.000000 0.000000 1.386150 -0.465531 9.364159 1.031012 1.452177 -47.255698 5.461206 7.742746 52.481272 -4.505010 2.704517 -83.483458 0.000000 0.000000 0.000000 23.210753 10.925978 -1.764817 -18.447214 36.521074 -8.185800 60.016721 13.733276 5.233594 0.000000 0.000000 0.000000 7.734653 1.865919 1.410142 52.231865 34.654997 5.482845 35.218121 -15.402077 -4.184765 0.000000 0.000000 0.000000 
0.002186 1.010825 -0.002696 1.776702 -3.139073 -0.601740 2.128968 -0.600817 -8.194139 -3.446818 0.540170 -16.418715 32.796266 24.908553 109.282060 0.000000 0.000000 0.000000 -4.149969 0.622700 -7.876171 0.673244 -0.431688 -12.253477 -39.570428 -23.212839 119.296868 0.000000 0.000000 0.000000 -0.225232 -0.291244 8.108281 2.459066 1.513690 -49.565164 3.482657 4.919181 53.968879 -0.175644 2.950253 -87.307670 0.000000 0.000000 0.000000 25.092844 9.880551 -2.381510 -12.274249 43.423143 -5.449418 65.811209 8.602823 3.287596 0.000000 0.000000 0.000000 5.032286 0.607359 0.487427 53.585805 37.454912 7.037691 36.522196 -18.504247 -5.633214 0.000000 0.000000 0.000000 
0.004898 1.010843 -0.005776 1.511018 -6.382671 -1.374236 1.711068 -0.488237 -6.503257 -2.321880 0.708281 -18.047450 40.334010 25.791358 115.261808 0.000000 0.000000 0.000000 -3.585407 0.633063 -7.462499 1.521914 -0.372643 -12.680071 -33.979693 -21.535438 117.666719 0.000000 0.000000 0.000000 1.578377 -0.357318 6.933824 2.156809 1.655356 -47.210265 3.122282 6.688892 54.059934 -3.355274 3.021238 -87.386932 0.000000 0.000000 0.000000 24.973524 7.817821 -2.249475 -2.590439 45.186864 -0.305509 61.738648 7.555683 1.936280 0.000000 0.000000 0.000000 7.023799 0.943864 0.730956 51.846317 39.746681 7.298318 33.912114 -17.434167 -5.026074 0.000000 0.000000 0.000000 
0.007957 1.012288 -0.008983 1.398029 -6.405924 -2.308095 1.372276 -0.482551 -6.200112 -2.531551 0.683683 -17.476005 39.507919 26.337837 111.889773 0.000000 0.000000 0.000000 -3.484214 0.652522 -7.783822 1.130661 -0.358546 -11.143192 -29.201966 -20.704288 117.709063 0.000000 0.000000 0.000000 1.905507 -0.373284 6.975713 1.472635 1.524158 -45.241174 2.343448 3.826493 53.341079 -1.098596 3.543717 -86.639298 0.000000 0.000000 0.000000 25.891332 6.485129 -2.736418 4.658514 48.950478 4.379577 60.363197 1.732951 -0.736439 0.000000 0.000000 0.000000 7.155607 1.956429 0.913121 50.923455 42.873220 8.245360 34.685988 -18.946489 -5.965246 0.000000 0.000000 0.000000 
0.011501 1.010398 -0.012325 1.393191 -6.734695 -3.087690 1.068607 -0.454412 -5.645095 -2.134592 0.649630 -15.986503 38.955540 26.334743 112.053702 0.000000 0.000000 0.000000 -4.053330 0.618541 -7.640961 0.854174 -0.335309 -9.950500 -26.192857 -20.247972 116.846852 0.000000 0.000000 0.000000 1.515202 -0.366326 7.482337 1.769681 1.428585 -44.000513 2.244968 2.631189 52.903903 -2.458315 3.812658 -87.383889 0.000000 0.000000 0.000000 26.146679 6.467417 -3.111082 10.212975 48.022935 7.803405 63.016154 0.778640 -1.373220 0.000000 0.000000 0.000000 7.073646 1.115316 0.440878 51.165540 44.081929 8.678047 32.125433 -19.629570 -5.925015 0.000000 0.000000 0.000000 
0.015006 1.008923 -0.015579 1.336706 -6.864992 -3.077398 0.708347 -0.489055 -5.811335 -1.774111 0.643933 -15.630004 38.607637 26.166299 113.015741 0.000000 0.000000 0.000000 -4.443880 0.592169 -7.414270 0.313824 -0.338732 -10.283656 -21.711982 -19.600007 115.995918 0.000000 0.000000 0.000000 1.329526 -0.368530 7.824986 1.884020 1.446963 -44.200070 1.867795 1.072888 53.223129 -1.926688 4.070033 -86.997942 0.000000 0.000000 0.000000 27.464569 6.602274 -3.643096 13.385298 47.621922 10.014723 66.419592 0.684528 -1.233584 0.000000 0.000000 0.000000 6.084246 0.888175 0.225657 53.458570 45.388534 9.837894 30.399479 -20.911050 -6.084355 0.000000 0.000000 0.000000 
